<svg height="800" viewBox="0 0 849 800" width="849" xmlns="http://www.w3.org/2000/svg" xmlns:xlink="http://www.w3.org/1999/xlink"><linearGradient id="a" x1="-.694412%" x2="99.305588%" y1="15.541937%" y2="84.458063%"><stop offset="0" stop-color="#4f8fe3"/><stop offset="1" stop-color="#a250f6"/></linearGradient><g fill="url(#a)" fill-rule="evenodd"><path d="m179.035824 30.6403257c31.399793-10 108.604502 6.7165109 143.249726 6.7165109 34.645223 0 59.354776-21.9971623 152.55614-21.9971623 62.973297 0 114.841566 23.7785926 190.286079 55.2806514 75.444513 31.5020583 105.047291 64.3120723 130.509987 110.6127393 52.279647 95.063876 35.628203 218.273807-14.807919 312.344401-112.501399 209.831229-250.004974 52.695334-345.288526 218.278709-49.69357 86.357286-87.539169 112.351243-174.3857 108.377377s-116.844565-42.004753-168.8675697-124.083733c-48.9501998-77.230881-25.6315071-197.396104-.3367499-360.49567 7.7259785-49.816795 4.6804456-199.350698 15.6847396-237.6922607 11.004295-38.3415626 40-57.3415626 71.399793-67.3415626z" opacity=".2" transform="matrix(0 -1 -1 0 863.640326 863.640326)"/><path d="m107.310973 110.910363c68.70776-60.7969887 211.800732-60.7969887 271.52223-70.2102177 59.721498-9.4132289 208.651331-123.9943974 301.283518 78.8964117 36.656823 80.28886 59.370511 120.459866 81.014427 237.777023 21.643916 117.317158 21.643916 237.068259-44.852448 288.461574-72.972742 56.39874-220.588072-5.790796-287.343804 11.072275-66.755732 16.863072-224.896934 52.949571-305.712652-25.549265-94.3343488-91.629904-133.2710509-251.464686-121.03509563-324.06711 12.23595523-72.602424 36.41606443-135.583702 105.12382463-196.380691z" opacity=".1"/></g></svg>