<svg height="24" viewBox="0 0 24 24" width="24" xmlns="http://www.w3.org/2000/svg"><g fill="none" fill-rule="evenodd"><rect fill="#ef5362" height="24" rx="12" width="24"/><path d="m11.328 18.0961905c-1.0255467-.9217143-3.1276-2.8135238-3.99056-3.6095238-1.16256-1.0718096-2.31802667-2.7131429-2.31802667-4.2139048 0-2.17238095 1.93498667-3.7015238 3.72418667-3.7015238 2.46848 0 3.1666133 1.672 3.1666133 2.27238095 0-.60019048.7612267-2.27238095 3.2297067-2.27238095 1.7892 0 3.7241867 1.52914285 3.7241867 3.7015238 0 1.5005714-1.1556534 3.1420952-2.3180267 4.2139048-.8715467.8038095-3.0422933 2.7253333-4.074 3.6365714-.3444.3041905-.7881067.2927619-1.14408-.0270476z" fill="#fff" fill-rule="nonzero"/></g></svg>