<svg height="44" viewBox="0 0 44 44" width="44" xmlns="http://www.w3.org/2000/svg"><g fill="none" fill-rule="evenodd"><rect fill="#ece2ff" height="44" rx="22" width="44"/><path d="m17.1 12.3c-1.4390409 2.8793278-4.3810925 4.6987544-7.6 4.7-1.31986781.0034413-2.62188458-.3049311-3.8-.9-2.753125 1.0077148-4.31979167 1.3077148-4.7.9s-.08020833-1.9743815.9-4.7c-.59506886-1.1781154-.90344125-2.48013219-.9-3.8.00124556-3.21890751 1.82067222-6.16095913 4.7-7.6 1.17811542-.59506886 2.48013219-.90344125 3.8-.9h.5c4.3158094.23809969 7.7619003 3.68419058 8 8v.5c.0034413 1.31986781-.3049311 2.6218846-.9 3.8z" stroke="#54486b" stroke-linecap="round" stroke-linejoin="round" stroke-width="2" transform="translate(13 13)"/></g></svg>