<svg viewBox="0 0 128 128" xmlns="http://www.w3.org/2000/svg"><g opacity=".3"><path d="m126.18658 45.68834a30.00062 30.00062 0 0 0 -23.51158-25.04534 19.6899 19.6899 0 0 1 -10.9327-6.54834 37.01084 37.01084 0 0 0 -64.3266 15.68223 19.56747 19.56747 0 0 1 -10.4271 13.1674 28.00249 28.00249 0 1 0 37.66709 37.34346 9.41321 9.41321 0 0 1 8.51571-5.29152q.43.00324.85973-.00349a12.39338 12.39338 0 0 1 12.03177 9.73747 20.0035 20.0035 0 0 0 26.05724 14.14361 19.98315 19.98315 0 0 0 13.34786-17.89975 21.38393 21.38393 0 0 1 4.525-12.32395 29.90938 29.90938 0 0 0 6.19358-22.96178z" fill="#c9c1f5"/><path d="m9.678 26.91442a7.15162 7.15162 0 0 1 13.80125-3.28952 3.816 3.816 0 0 1 6.18557 2.9751c0 .10982-.00736.21781-.01655.32531a5.69384 5.69384 0 0 1 -1.89137 11.07469h-16.21722a5.69423 5.69423 0 0 1 -1.86168-11.08558z" fill="#eef6ff"/><path d="m9.678 29.28966a7.15162 7.15162 0 0 1 13.80121-3.28954 3.816 3.816 0 0 1 6.18559 2.975c0 .10988-.00739.21787-.01652.32536a5.70681 5.70681 0 0 1 3.69723 4.20865 5.65724 5.65724 0 0 0 -3.69723-6.58394c.00913-.10749.01652-.21548.01652-.32529a3.816 3.816 0 0 0 -6.18559-2.975 7.14532 7.14532 0 0 0 -13.80121 3.28954 5.65837 5.65837 0 0 0 -3.727 6.59456 5.70739 5.70739 0 0 1 3.727-4.21934z" fill="#fff"/><path d="m27.75689 35.62478h-16.21723a5.71619 5.71619 0 0 1 -5.58865-4.491 5.6422 5.6422 0 0 0 -.13501 1.16622 5.71188 5.71188 0 0 0 5.72366 5.7h16.21723a5.71189 5.71189 0 0 0 5.72375-5.7 5.64087 5.64087 0 0 0 -.1351-1.16605 5.71614 5.71614 0 0 1 -5.58865 4.49083z" fill="#5cbeff" opacity=".3"/><path d="m27.75684 39h-16.21684a6.69366 6.69366 0 0 1 -2.90719-12.7373c-.001-.0459-.001-.0918-.001-.1377a8.15485 8.15485 0 0 1 15.28719-3.92383 4.822 4.822 0 0 1 6.73437 4.05762 6.69293 6.69293 0 0 1 -2.89653 12.74121zm-10.97071-19a6.14654 6.14654 0 0 0 -6.15429 6.125 6.2746 6.2746 0 0 0 .04.68115.9995.9995 0 0 1 -.66993 1.0542 4.69442 4.69442 0 0 0 1.53809 9.13965h16.2168a4.69369 4.69369 0 0 0 1.56152-9.13037 1.00063 1.00063 0 0 1 -.667-1.02588c.00683-.08057.01367-.16113.01367-.24365a2.816 2.816 0 0 0 -4.56543-2.19092.99961.99961 0 0 1 -1.55566-.43164 6.18106 6.18106 0 0 0 -5.75777-3.97754z" fill="#6d6daa"/><path d="m11.53968 26.6a5.73707 5.73707 0 0 0 -1.87725.31365" fill="#eef6ff"/><path d="m9.66211 27.91406a1.0003 1.0003 0 0 1 -.32617-1.9458 6.74849 6.74849 0 0 1 2.20406-.36816 1 1 0 1 1 0 2 4.74263 4.74263 0 0 0 -1.55176.25879 1.00357 1.00357 0 0 1 -.32613.05517z" fill="#6d6daa"/><path d="m29.64916 26.91887a5.73666 5.73666 0 0 0 -1.89226-.31887" fill="#eef6ff"/><path d="m29.64941 27.91943a.99638.99638 0 0 1 -.3291-.05615 4.73511 4.73511 0 0 0 -1.56347-.26318 1 1 0 0 1 0-2 6.73441 6.73441 0 0 1 2.22168.37451 1.00032 1.00032 0 0 1 -.32911 1.94482z" fill="#6d6daa"/><path d="m23.50435 23.60178a3.82014 3.82014 0 0 0 -1.03777 1.23765" fill="#eef6ff"/><path d="m22.46582 25.83936a.99924.99924 0 0 1 -.88382-1.46536 4.86641 4.86641 0 0 1 1.30762-1.56152 1 1 0 1 1 1.22851 1.57812 2.86 2.86 0 0 0 -.7666.91407.99936.99936 0 0 1 -.88571.53469z" fill="#6d6daa"/><path d="m86.04187 40.93062a7.319 7.319 0 0 1 10.88575-8.11 9.61521 9.61521 0 0 1 17.23563 4.813 6.87157 6.87157 0 0 1 -2.23962 13.36894l-25.66746.0002a5.0383 5.0383 0 0 1 -.2143-10.07216z" fill="#ecf4ff"/><path d="m86.04185 43.68088a6.98905 6.98905 0 0 1 -.18559-2.72421 5.01361 5.01361 0 0 0 -4.43792 6.41365 5.02635 5.02635 0 0 1 4.62351-3.68944z" fill="#fff"/><path d="m93.13141 34.503a7.28693 7.28693 0 0 1 3.79619 1.06789 9.6152 9.6152 0 0 1 17.23563 4.813 6.875 6.875 0 0 1 4.489 5.15407 6.86931 6.86931 0 0 0 -4.489-7.90435 9.61523 9.61523 0 0 0 -17.23563-4.813 7.32155 7.32155 0 0 0 -11.129 6.26516 7.07689 7.07689 0 0 0 .14071 1.32683 7.33333 7.33333 0 0 1 7.1921-5.9096z" fill="#fff"/><path d="m86.04185 38.18032c-.04387-.16908-.06966-.34476-.10256-.518-.03519.17881-.06109.36082-.083.544.06303-.00497.12189-.02332.18556-.026z" fill="#5cbcff"/><path d="m111.92365 48.2523-25.66746.00016a5.04063 5.04063 0 0 1 -4.83785-3.63246 4.983 4.983 0 0 0 -.20349 1.34126 5.04141 5.04141 0 0 0 5.04134 5.04145l25.66746-.00017a6.81119 6.81119 0 0 0 6.72853-8.21487 6.87619 6.87619 0 0 1 -6.72853 5.46463z" fill="#5cbcff" opacity=".3"/><path d="m86.25586 52.00293a6.0393 6.0393 0 0 1 -1.39356-11.916 8.08659 8.08659 0 0 1 -.06347-1.001 8.3213 8.3213 0 0 1 11.8789-7.53418 10.61507 10.61507 0 0 1 18.39942 5.36625 7.87125 7.87125 0 0 1 -3.15332 15.08447zm6.876-19.25a6.30845 6.30845 0 0 0 -6.12207 7.92627.99957.99957 0 0 1 -.92579 1.25049 4.03839 4.03839 0 0 0 .17188 8.07324l25.668-.00049a5.87143 5.87143 0 0 0 1.91308-11.42334 1.00065 1.00065 0 0 1 -.66894-.84326 8.61459 8.61459 0 0 0 -15.44336-4.31055.99975.99975 0 0 1 -1.31641.25 6.3102 6.3102 0 0 0 -3.27641-.92236z" fill="#6d6da8"/><path d="m113.74512 42.60645a1.00154 1.00154 0 0 1 -.95117-1.30957 8.63149 8.63149 0 0 0 -8.20411-11.294 1 1 0 0 1 0-2 10.6322 10.6322 0 0 1 10.10645 13.91212 1.00133 1.00133 0 0 1 -.95117.69145z" fill="#6d6da8"/><path d="m89.57715 43.168a.99511.99511 0 0 1 -.65918-.248 4.03408 4.03408 0 0 0 -2.66211-1 1 1 0 0 1 0-2 6.03406 6.03406 0 0 1 3.98047 1.4961 1 1 0 0 1 -.65918 1.75195z" fill="#6d6da8"/><path d="m99.09473 35.81592a.99917.99917 0 0 1 -.81348-.417 6.35386 6.35386 0 0 0 -5.14941-2.646 1 1 0 0 1 0-2 8.357 8.357 0 0 1 6.77441 3.48 1 1 0 0 1 -.81152 1.583z" fill="#6d6da8"/><g fill="#fff"><path d="m104 77a1.0321 1.0321 0 0 1 -.71-.29.98946.98946 0 0 1 -.29-.71 1.39038 1.39038 0 0 1 .01953-.2002.65026.65026 0 0 1 .06055-.17968.74157.74157 0 0 1 .08984-.18067 1.61105 1.61105 0 0 1 .12008-.14945 1.04669 1.04669 0 0 1 1.41992 0 1.0321 1.0321 0 0 1 .29008.71 1.01024 1.01024 0 0 1 -.29.71 1.03574 1.03574 0 0 1 -.71.29z"/><path d="m101.99805 81h-6a1 1 0 0 1 0-2h6a1 1 0 0 1 0 2z"/><path d="m99.99805 76.999h-7a1 1 0 0 1 0-2h7a1 1 0 0 1 0 2z"/><path d="m91.99707 80.999h-1.999a1 1 0 0 1 0-2h1.999a1 1 0 0 1 0 2z"/><path d="m99.99805 85h-8.001a1 1 0 0 1 0-2h8.001a1 1 0 0 1 0 2z"/><path d="m26 76.01953a.989.989 0 0 1 -.37988-.06933 1.03153 1.03153 0 0 1 -.32032-.22071.87163.87163 0 0 1 -.21972-.31933 1.01122 1.01122 0 0 1 -.08008-.39063.97657.97657 0 0 1 .2998-.70019 1.01488 1.01488 0 0 1 1.41016 0 .9711.9711 0 0 1 .29.70019.93081.93081 0 0 1 -.29.71 1.03137 1.03137 0 0 1 -.32031.22071 1.00487 1.00487 0 0 1 -.38965.06929z"/><path d="m27.001 72.02441h-2a1 1 0 0 1 0-2h2a1 1 0 0 1 0 2z"/><path d="m30.001 68.02441h-9.999a1 1 0 0 1 0-2h9.999a1 1 0 0 1 0 2z"/><path d="m21 72.02441h-3.999a1 1 0 0 1 0-2h3.999a1 1 0 0 1 0 2z"/><path d="m22 76.02539h-8a1 1 0 0 1 0-2h8a1 1 0 0 1 0 2z"/></g></g><ellipse cx="64" cy="117" fill="#919dc4" rx="29" ry="8"/><path d="m89 112.94629v.05371c0 1.83521-2.52563 3.50488-6.65283 4.75317a20.69268 20.69268 0 0 0 .64083 5.29083c6.1298-1.46685 10.012-3.62969 10.012-6.044 0-1.47974-1.46021-2.865-4-4.05371z" fill="#4c5a7f" opacity=".3"/><path d="m53.8457 119.39624-.023-.00269c-1.87622-.23461-3.62927-.53173-5.227-.88232l-.074-.01636q-1.06171-.23474-2.02873-.49965c-.38646-.106-1.373 3.33657-1.47469 5.05019a83.66742 83.66742 0 0 0 18.353 1.9502c.11841-1.60328-.16808-5.00029-.43545-5.00343a81.74392 81.74392 0 0 1 -9.09013-.59594z" fill="#fff" opacity=".3"/><path d="m64 126c-14.543 0-30-3.1543-30-9s15.457-9 30-9 30 3.1543 30 9-15.457 9-30 9zm0-16c-17.34766 0-28 4.07715-28 7s10.65234 7 28 7 28-4.07715 28-7-10.65234-7-28-7z" fill="#6d6daa"/><path d="m89 104c0 3.866-11.19286 7-25 7s-25-3.134-25-7v9c0 3.866 11.19286 7 25 7s25-3.134 25-7z" fill="#b1f1a8"/><path d="m47 109.13062v9a67.62707 67.62707 0 0 0 15 1.845v-9a67.62707 67.62707 0 0 1 -15-1.845z" fill="#fff" opacity=".5"/><path d="m82 108.855v9c4.33142-1.25879 7-2.969 7-4.855v-9c0 1.886-2.66858 3.59619-7 4.855z" fill="#2c4b75" opacity=".2"/><ellipse cx="64" cy="104" fill="#b1f1a8" rx="25" ry="7"/><path d="m64 112c-12.60449 0-26-2.80371-26-8s13.39551-8 26-8 26 2.80371 26 8-13.39551 8-26 8zm0-14c-14.86914 0-24 3.49414-24 6s9.13086 6 24 6 24-3.49414 24-6-9.13086-6-24-6z" fill="#6d6daa"/><path d="m64 121c-12.60449 0-26-2.80371-26-8v-9a1 1 0 0 1 2 0v9c0 2.50586 9.13086 6 24 6s24-3.49414 24-6v-9a1 1 0 0 1 2 0v9c0 5.19629-13.39551 8-26 8z" fill="#6d6daa"/><path d="m66.95685 37.76242v3.75958l-.12.16c5.61939 4.79948 5.95935 10.61885 14.6584 19.05793a2.088 2.088 0 0 1 0 2.7197 5.54161 5.54161 0 0 1 -3.95957 1.65982 5.63519 5.63519 0 0 1 -3.09966-.9399 42.27382 42.27382 0 0 1 -5.53938-4.21955c.18 2.59972-.55994 17.21813-.9199 23.81741a3.40208 3.40208 0 0 1 -6.79926-.18v-10.11888h-2.89969a4.846 4.846 0 0 1 -4.73948-3.89953l-.24.04h-2.7597a4.83063 4.83063 0 0 1 -4.73948-3.85958h-1.99976c-2.67971 0-4.21954-1.93979-4.83947-4.81947a67.48317 67.48317 0 0 1 -.9599-13.51858 16.84968 16.84968 0 0 1 .8999-5.11944 1.49907 1.49907 0 0 1 .1-.32 24.177 24.177 0 0 1 1.89979-4.21954 6.69352 6.69352 0 0 1 1.95979-4.75948h22.13758a6.69352 6.69352 0 0 1 1.95979 4.75951z" fill="#f7e0da"/><g fill="#bf8c82" opacity=".3"><path d="m61.17753 69.479h-2.89975a4.846 4.846 0 0 1 -4.73947-3.89956l-.24.03995h-2.75968a4.83063 4.83063 0 0 1 -4.73947-3.85952h-1.99978c-2.67972 0-4.21951-1.93981-4.83948-4.81955a56.2877 56.2877 0 0 1 -.92471-10.19c-.01188.22385-.03515.44624-.03515.67115a67.48222 67.48222 0 0 0 .95986 13.51847c.62 2.87973 2.15976 4.81954 4.83948 4.81954h1.99978a4.83064 4.83064 0 0 0 4.73947 3.85953h2.75971l.24-.04a4.846 4.846 0 0 0 4.73947 3.89956h2.89975z"/><path d="m80.79966 60.03727a5.53916 5.53916 0 0 1 -3.264 1.08256 5.63564 5.63564 0 0 1 -3.09966-.93983 42.27184 42.27184 0 0 1 -5.53936-4.21959c.18 2.59973-.55991 17.21818-.9199 23.81739a3.40206 3.40206 0 0 1 -6.79923-.17991v3.99957a3.40206 3.40206 0 0 0 6.79923.17991c.36-6.59922 1.09989-21.21766.9199-23.81739a42.27271 42.27271 0 0 0 5.53936 4.21958 5.63572 5.63572 0 0 0 3.09967.93984 5.5416 5.5416 0 0 0 3.95962-1.65982 2.08794 2.08794 0 0 0 0-2.71967c-.24613-.23883-.46258-.46797-.69563-.70264z"/></g><path d="m38.52307 58.30724c-.122-.93388-.22067-1.93325-.29808-3.02442.07741 1.09142.17624 2.09054.29808 3.02442z" fill="#fff" opacity=".5"/><path d="m38.225 55.28282c-.07754-1.09093-.13366-2.27392-.17059-3.57531.03692 1.30139.09304 2.48438.17059 3.57531z" fill="#fff" opacity=".5"/><path d="m66.88142 37.0025a6.66532 6.66532 0 0 0 -1.88432-3.99956h-22.13764a6.66532 6.66532 0 0 0 -1.88432 3.99956l.87438 1.72c6.45832-.78177 17.26521-1.17744 23.88346 1.52176z" fill="#bf8c82" opacity=".3"/><g fill="#fff"><path d="m38.52307 58.30724c.12184.93413.26683 1.80255.43679 2.63256a10.5336 10.5336 0 0 0 .27606 1.03382 10.5336 10.5336 0 0 1 -.27606-1.03382c-.16986-.83001-.31495-1.69843-.43679-2.63256z" opacity=".5"/><path d="m75.531 64.728h.001z" opacity=".5"/><path d="m66.8369 41.68189.11987-.15975v-1.55467l-3.84065-.48294-.02474.80933a1.992 1.992 0 0 0 .64676 1.50914c4.98758 4.684 5.38671 10.84874 13.72424 18.93693a1.42826 1.42826 0 0 1 .25612.365 5.53968 5.53968 0 0 0 3.08116-1.06779c-8.00388-8.05714-8.50245-13.69148-13.96276-18.35525z" opacity=".5"/><path d="m77.53573 65.1194c.17994 0 .3579-.035.5371-.05243-.1792.01747-.35716.05243-.5371.05243z" opacity=".5"/><path d="m76.4608 64.99977c.031.00664.06154.01477.09256.02092-.03102-.00569-.06154-.01452-.09256-.02092z" opacity=".5"/><path d="m81.49528 63.45962a5.47318 5.47318 0 0 1 -.47642.39531 5.38461 5.38461 0 0 0 .47642-.39531 1.54658 1.54658 0 0 0 .31482-.46645 1.54955 1.54955 0 0 1 -.31482.46645z" opacity=".5"/></g><path d="m64.57715 87.99707a4.40448 4.40448 0 0 1 -4.39942-4.39941v-23.63766a1 1 0 1 1 2 0v23.6377a2.40187 2.40187 0 0 0 4.79981.13476c.52148-9.54883 1.07519-21.47851.9209-23.70361a1.00052 1.00052 0 0 1 1.69531-.78613 39.78465 39.78465 0 0 0 5.39648 4.105 4.6474 4.6474 0 0 0 5.791-.58887.85756.85756 0 0 0 .21877-.62653 1.08641 1.08641 0 0 0 -.19922-.67334 51.52176 51.52176 0 0 1 -9.03906-11.75c-1.65625-2.75927-3.08692-5.14209-5.57422-7.2666a19.90657 19.90657 0 0 0 -2.62793-1.90429 1.00028 1.00028 0 0 1 1.03516-1.71192 21.9778 21.9778 0 0 1 2.88965 2.09424c2.7373 2.3374 4.24511 4.8501 5.99218 7.75928a49.78519 49.78519 0 0 0 8.71485 11.34231 2.96888 2.96888 0 0 1 .80859 2.10593 2.80471 2.80471 0 0 1 -.80762 2.04785 6.48062 6.48062 0 0 1 -4.65625 1.94336 6.6199 6.6199 0 0 1 -3.65039-1.10449c-1.59961-1.06641-2.91406-2.00977-3.96972-2.84863-.083 5.71484-.78028 18.72168-.94141 21.666a4.37608 4.37608 0 0 1 -4.39746 4.16505z" fill="#6d6da8"/><path d="m53.29785 70.61914h-2.75879a5.83751 5.83751 0 0 1 -5.7207-4.66309 5.90968 5.90968 0 0 1 -.11914-1.15673v-6.939a1 1 0 0 1 2 0v6.939a3.95043 3.95043 0 0 0 .08008.76611 3.83213 3.83213 0 0 0 3.75976 3.05371h2.75879a1 1 0 0 1 0 2z" fill="#6d6da8"/><path d="m61.11719 74.47852h-2.83985a5.84862 5.84862 0 0 1 -5.71972-4.70508 5.54674 5.54674 0 0 1 -.09961-1.11426v-9.65918a1 1 0 0 1 2 0v9.65918a3.72127 3.72127 0 0 0 .06054.72461 3.84534 3.84534 0 0 0 3.75879 3.09473h2.83985a1 1 0 0 1 0 2z" fill="#6d6da8"/><path d="m43.03275 41.982a25.43547 25.43547 0 0 1 1.37967-3.2595h-4.03167a25.26243 25.26243 0 0 0 -1.38089 3.2595 1.49923 1.49923 0 0 0 -.09994.32 16.84622 16.84622 0 0 0 -.89992 5.11933c0 1.56477.0176 2.9848.05439 4.28618-.03679-1.30138-.05427-2.72141-.05427-4.28618 0-.225.02314-.44725.03508-.671a56.2951 56.2951 0 0 0 .92465 10.19005c.55027 2.55576 1.82987 4.36323 3.98317 4.73934a68.94243 68.94243 0 0 1 -.91013-13.25016c0-.03446.00505-.06843.00542-.10289-.00136-.30449-.00542-.58928-.00542-.90534a16.84622 16.84622 0 0 1 .89992-5.11939 1.49923 1.49923 0 0 1 .09994-.31994z" fill="#fff" opacity=".5"/><path d="m66.957 42.522a.99974.99974 0 0 1 -1-1v-3.75979a5.6873 5.6873 0 0 0 -1.667-4.05221.99989.99989 0 0 1 1.4141-1.4141 7.6727 7.6727 0 0 1 2.2529 5.46631v3.75979a.99973.99973 0 0 1 -1 1z" fill="#6d6da8"/><path d="m39 42.98242a1.00134 1.00134 0 0 1 -.94629-1.32373 25.92225 25.92225 0 0 1 1.85059-4.17236 7.66124 7.66124 0 0 1 2.248-5.19043.99989.99989 0 0 1 1.41411 1.4141 5.68727 5.68727 0 0 0 -1.667 4.05225 1.00681 1.00681 0 0 1 -.14257.51513 23.41327 23.41327 0 0 0 -1.81055 4.02784 1.00028 1.00028 0 0 1 -.94629.6772z" fill="#6d6da8"/><path d="m45.69922 66.75977h-1.89942c-2.97265 0-5.03808-1.99219-5.81738-5.60938a68.18319 68.18319 0 0 1 -.98242-13.729 17.77838 17.77838 0 0 1 .94824-5.42774.99983.99983 0 1 1 1.90235.61621 15.79588 15.79588 0 0 0 -.85059 4.81153 66.50374 66.50374 0 0 0 .93945 13.31787c.57422 2.66455 1.873 4.02051 3.86035 4.02051h1.89942a1 1 0 0 1 0 2z" fill="#6d6da8"/><path d="m68.89648 60.96a.99974.99974 0 0 1 -1-1v-2.89945a1 1 0 0 1 2 0v2.89945a.99973.99973 0 0 1 -1 1z" fill="#6d6da8"/><path d="m38.68066 43.98193a1.00013 1.00013 0 0 1 -.97066-1.24463c.0625-.248.14258-.47753.22363-.70507a2.77983 2.77983 0 0 1 .1377-.42188 5.54372 5.54372 0 0 1 5.34767-3.88818h.56054a1 1 0 0 1 0 2h-.56054a3.594 3.594 0 0 0 -3.49122 2.63232.64307.64307 0 0 0 -.043.1167 1.42414 1.42414 0 0 1 -.044.16846 6.1058 6.1058 0 0 0 -.19141.58691 1.0002 1.0002 0 0 1 -.96871.75537z" fill="#6d6da8"/><path d="m40 28h28v7h-28z" fill="#fff"/><path d="m64 28h4v7h-4z" fill="#5cbcff" opacity=".3"/><path d="m68 36h-28a.99974.99974 0 0 1 -1-1v-7a1 1 0 0 1 2 0v6h26v-6a1 1 0 0 1 2 0v7a.99974.99974 0 0 1 -1 1z" fill="#6d6da8"/><path d="m44 32.02344a.99974.99974 0 0 1 -1-1 1.0098 1.0098 0 0 1 1-1.01172.98981.98981 0 0 1 1 .98828v.02344a.99974.99974 0 0 1 -1 1z" fill="#6d6da8"/><path d="m39 6h30v22h-30z" fill="#c7bff3"/><path d="m39 6h4v22h-4z" fill="#fff" opacity=".5"/><path d="m65 6h4v22h-4z" fill="#1c4188" opacity=".2"/><path d="m69 29h-30a.99974.99974 0 0 1 -1-1v-22a1 1 0 0 1 2 0v21h28v-21a1 1 0 0 1 2 0v22a.99974.99974 0 0 1 -1 1z" fill="#6d6da8"/></svg>