<svg fill="none" height="29" viewBox="0 0 36 29" width="36" xmlns="http://www.w3.org/2000/svg"><path d="m32.3293 15.5327.1707.1707v-.2414-11.862-.1h-.1-28.8-.1v.1 11.862.2414l.17071-.1707 7.73929-7.73929c.0001-.0001.0002-.00021.0003-.00032.3178-.31128.7449-.48563 1.1897-.48563s.8719.17435 1.1897.48563c.0001.00011.0002.00022.0003.00032l9.5393 9.53929.0707.0707.0707-.0707 4.1393-4.1393c.0001-.0001.0002-.0002.0003-.0003.3177-.3113.7449-.4856 1.1897-.4856s.872.1743 1.1897.4856c.0001.0001.0002.0002.0003.0003zm.1707 5.0053v-.0414l-.0293-.0293-3.6-3.6-.0707-.0707-.0707.0707-4.1393 4.1393c-.0001.0001-.0003.0002-.0004.0004-.3177.3112-.7448.4855-1.1896.4855-.4447 0-.8718-.1742-1.1895-.4854-.0002-.0002-.0003-.0004-.0005-.0005l-9.5392-9.5572-.0707-.0709-.0708.0708-9.00001 9-.02929.0293v.0414 4.68.1h.1 28.8.1v-.1zm-28.9-20.438h28.8c.9283 0 1.8185.368749 2.4749 1.02513.6563.65637 1.0251 1.54661 1.0251 2.47487v21.6c0 .9283-.3688 1.8185-1.0251 2.4749-.6564.6563-1.5466 1.0251-2.4749 1.0251h-28.8c-.92826 0-1.8185-.3688-2.47487-1.0251-.656381-.6564-1.02513-1.5466-1.02513-2.4749v-21.6c0-1.92477 1.57523-3.5 3.5-3.5zm19.8 10.6c-.4509 0-.8833-.1791-1.2021-.4979-.3188-.31883-.4979-.75123-.4979-1.2021s.1791-.88327.4979-1.20208.7512-.49792 1.2021-.49792.8833.17911 1.2021.49792.4979.75121.4979 1.20208-.1791.88327-.4979 1.2021c-.3188.3188-.7512.4979-1.2021.4979z" fill="#ff6b6b" stroke="#fff" stroke-width=".2"/></svg>