<svg height="18" viewBox="0 0 14 18" width="14" xmlns="http://www.w3.org/2000/svg"><path d="m2.2 7.36363636v-2.45454545c0-2.71121605 2.1490332-4.90909091 4.8-4.90909091s4.8 2.19787486 4.8 4.90909091v2.45454545h.1c1.159798 0 2.1 1.09893744 2.1 2.45454546v5.72727268c0 1.3556081-.940202 2.4545455-2.1 2.4545455h-9.8c-1.15979797 0-2.1-1.0989374-2.1-2.4545455v-5.72727268c0-1.35560802.94020203-2.45454546 2.1-2.45454546zm1.6 0h6.4v-2.45454545c0-1.80747736-1.4326888-3.27272727-3.2-3.27272727s-3.2 1.46524991-3.2 3.27272727zm-1.525 1.63636364c-.37279221 0-.675.36631248-.675.81818182v5.72727268c0 .4518694.30220779.8181819.675.8181819h9.45c.3727922 0 .675-.3663125.675-.8181819v-5.72727268c0-.45186934-.3022078-.81818182-.675-.81818182z" fill="#7f8c8d" fill-rule="evenodd"/></svg>