<svg fill="none" height="28" viewBox="0 0 28 28" width="28" xmlns="http://www.w3.org/2000/svg"><g stroke="#7a41ff" stroke-linecap="round" stroke-linejoin="round" stroke-width="2.43478"><path d="m12.1733 4.86914h-8.52172c-.64574 0-1.26504.25652-1.72165.71313s-.71313 1.07591-.71313 1.72165v17.04348c0 .6457.25652 1.265.71313 1.7217.45661.4566 1.07591.7131 1.72165.7131h17.04352c.6457 0 1.265-.2565 1.7216-.7131.4566-.4567.7131-1.076.7131-1.7217v-8.5217"/><path d="m21.3041 3.0435c.4843-.48431 1.1412-.75639 1.8261-.75639s1.3418.27208 1.8261.75639.7564 1.14117.7564 1.82609c0 .68491-.2721 1.34177-.7564 1.82608l-11.5653 11.56523-4.86952 1.2174 1.2174-4.8696z"/></g></svg>