<svg height="24" viewBox="0 0 24 24" width="24" xmlns="http://www.w3.org/2000/svg"><g fill="none"><circle cx="12" cy="12" fill="#ffcf47" r="12"/><path d="m13.9273 5.105152c0-.341536-.275-.618696-.6146-.618696-.0219 0-.0434.001248-.0646.003224l-4.2445-.104104-1.45-3.936816c-.0731-.259064-.3093-.44876-.5899-.44876-.2809 0-.5168.189696-.5902.44876l-1.4503 3.936816-4.2443.104104c-.0213-.002184-.043-.003224-.0646-.003224-.3393-.000312-.6143.276952-.6143.618696 0 .2184.1121.409552.2812.519688l3.3807 2.4856-1.2063 3.899376c-.0438.084552-.0688.181064-.0688.283192 0 .341848.275.619008.6146.619008.1438 0 .2766-.050336.3812-.13416l3.5814-2.364648 3.5812 2.364648c.1049.083824.2371.13416.3812.13416.3393 0 .6143-.27716.6143-.619008 0-.101816-.025-.198224-.0688-.283192l-1.2062-3.899376 3.3806-2.4856c.1687-.110344.281-.3016.281-.519688" fill="#fff" transform="translate(5 5)"/></g></svg>