<svg height="44" viewBox="0 0 44 44" width="44" xmlns="http://www.w3.org/2000/svg"><g fill="none" fill-rule="evenodd"><rect fill="#ddedff" height="44" rx="22" width="44"/><path d="m13 15.4375c0 .2442172.2000195.4375.4485433.4375h14.5574588c.2469492 0 .4485434-.1952986.4485434-.4375 0-.2442172-.2000195-.4375-.4485434-.4375h-14.5574588c-.2469491 0-.4485433.1952986-.4485433.4375zm4.5454545 4.375c0 .2442172.2000195.4375.4485434.4375h14.5574587c.2469492 0 .4485434-.1952986.4485434-.4375 0-.2442172-.2000195-.4375-.4485434-.4375h-14.5574587c-.2469492 0-.4485434.1952986-.4485434.4375zm-4.5454545 4.375c0 .2442172.2000195.4375.4485433.4375h14.5574588c.2469492 0 .4485434-.1952986.4485434-.4375 0-.2442172-.2000195-.4375-.4485434-.4375h-14.5574588c-.2469491 0-.4485433.1952986-.4485433.4375zm0 4.375c0 .2442172.2000195.4375.4485433.4375h14.5574588c.2469492 0 .4485434-.1952986.4485434-.4375 0-.2442172-.2000195-.4375-.4485434-.4375h-14.5574588c-.2469491 0-.4485433.1952986-.4485433.4375z" stroke="#486382" stroke-width="1.2"/></g></svg>